<svg width="64" height="19" viewBox="0 0 64 19" fill="none" xmlns="http://www.w3.org/2000/svg">
<path d="M9.36 17.76C10.144 17.76 10.64 17.616 10.848 17.328C11.072 17.04 11.184 16.552 11.184 15.864V11.208H9.648V10.68H16.56V11.208H15.624V17.976H15.264C14.976 17.576 14.568 17.376 14.04 17.376C13.816 17.376 13.144 17.52 12.024 17.808C10.92 18.096 9.976 18.24 9.192 18.24C6.584 18.24 4.56 17.536 3.12 16.128C1.696 14.72 0.984 12.608 0.984 9.792C0.984 6.96 1.728 4.776 3.216 3.24C4.72 1.704 6.736 0.935999 9.264 0.935999C10.24 0.935999 11.216 1.064 12.192 1.32C13.184 1.56 13.76 1.68 13.92 1.68C14.08 1.68 14.2 1.648 14.28 1.584C14.36 1.504 14.448 1.376 14.544 1.2H14.808L15 6.408H14.568C13.784 4.856 12.992 3.64 12.192 2.76C11.408 1.864 10.528 1.416 9.552 1.416C7.104 1.416 5.88 3.808 5.88 8.592V10.488C5.88 12.888 6.176 14.704 6.768 15.936C7.376 17.152 8.24 17.76 9.36 17.76ZM31.3894 18H25.9174L25.6534 16.248C25.3974 16.888 25.0134 17.384 24.5014 17.736C24.0054 18.072 23.2614 18.24 22.2694 18.24C19.7894 18.24 18.5494 16.904 18.5494 14.232V7.008H17.2054V6.576H23.0134V14.808C23.0134 15.768 23.0774 16.4 23.2054 16.704C23.3494 17.008 23.6214 17.16 24.0214 17.16C24.4374 17.16 24.8054 16.912 25.1254 16.416C25.4454 15.92 25.6054 15.232 25.6054 14.352V7.008H24.5014V6.576H30.0694V17.568H31.3894V18ZM38.1926 18.24C36.1286 18.24 34.5766 17.712 33.5366 16.656C32.5126 15.584 32.0006 14.104 32.0006 12.216C32.0006 10.312 32.5766 8.856 33.7286 7.848C34.8966 6.84 36.3766 6.336 38.1686 6.336C41.8006 6.336 43.5446 8.16 43.4006 11.808H36.6326V12.744C36.6326 14.312 36.8326 15.496 37.2326 16.296C37.6326 17.096 38.3286 17.496 39.3206 17.496C41.1766 17.496 42.3926 16.504 42.9686 14.52L43.4006 14.592C43.0966 15.744 42.5446 16.64 41.7446 17.28C40.9606 17.92 39.7766 18.24 38.1926 18.24ZM36.6566 11.328H39.1286V10.152C39.1286 8.856 39.0486 7.976 38.8886 7.512C38.7446 7.032 38.4406 6.792 37.9766 6.792C37.5286 6.792 37.1926 7.048 36.9686 7.56C36.7606 8.056 36.6566 8.92 36.6566 10.152V11.328ZM44.5732 18.24V13.944H44.8613C45.2773 15.336 45.8373 16.312 46.5413 16.872C47.2453 17.432 48.1253 17.712 49.1813 17.712C50.8133 17.712 51.6293 17.192 51.6293 16.152C51.6293 15.704 51.4293 15.368 51.0293 15.144C50.4053 14.792 49.6053 14.52 48.6293 14.328C47.5413 14.04 46.6293 13.656 45.8933 13.176C45.0133 12.6 44.5732 11.688 44.5732 10.44C44.5732 9.192 44.9572 8.2 45.7253 7.464C46.4933 6.712 47.5173 6.336 48.7973 6.336C49.5813 6.336 50.3893 6.52 51.2213 6.888C51.5253 7.016 51.7573 7.08 51.9173 7.08C52.0773 7.08 52.2133 7.024 52.3253 6.912C52.4373 6.8 52.5733 6.592 52.7333 6.288H52.9973V9.96H52.7093C51.8933 7.88 50.6293 6.84 48.9173 6.84C48.1653 6.84 47.6053 6.976 47.2373 7.248C46.8693 7.504 46.6853 7.832 46.6853 8.232C46.6853 8.472 46.7413 8.664 46.8533 8.808C46.9653 8.936 47.0533 9.032 47.1173 9.096C47.1813 9.16 47.2853 9.232 47.4293 9.312C47.5733 9.376 47.6933 9.432 47.7893 9.48C47.8853 9.512 48.0293 9.56 48.2213 9.624C48.4293 9.688 48.5813 9.728 48.6773 9.744C49.7653 10.016 50.5493 10.256 51.0293 10.464C51.5093 10.656 51.9653 10.896 52.3973 11.184C53.2773 11.792 53.7173 12.776 53.7173 14.136C53.7173 15.48 53.3173 16.504 52.5173 17.208C51.7173 17.896 50.6213 18.24 49.2293 18.24C48.2373 18.24 47.2773 18.008 46.3493 17.544C46.1573 17.416 46.0053 17.352 45.8933 17.352C45.5413 17.352 45.1973 17.648 44.8613 18.24H44.5732ZM55.3931 14.568V7.008H54.0731V6.576H55.3931V3.48L59.8571 2.376V6.576H62.9771V7.008H59.8571V15.096C59.8571 15.848 59.9291 16.4 60.0731 16.752C60.2331 17.104 60.5531 17.28 61.0331 17.28C61.5131 17.28 61.9291 17.04 62.2811 16.56C62.6491 16.08 62.8891 15.424 63.0011 14.592L63.4091 14.64C63.2811 15.744 62.9291 16.624 62.3531 17.28C61.7771 17.92 60.8251 18.24 59.4971 18.24C58.1691 18.24 57.1531 17.976 56.4491 17.448C55.7451 16.92 55.3931 15.96 55.3931 14.568Z" fill="#FDCE04"/>
</svg>
