<svg width="208" height="41" viewBox="0 0 208 41" fill="none" xmlns="http://www.w3.org/2000/svg">
<path d="M17.675 28.42C17.675 26.08 16.37 25 12.365 23.605C4.67 21.04 0.62 17.845 0.62 10.87C0.62 3.445 6.155 0.0249975 12.725 0.0249975C19.295 0.0249975 25.19 4.255 24.965 12.625H17.54C17.54 8.98 15.74 6.775 12.635 6.775C9.845 6.775 8.36 8.665 8.36 10.915C8.36 12.985 9.845 14.605 14.075 16.09C22.04 18.835 25.415 21.355 25.415 28.33C25.415 35.935 19.295 40.075 13.04 40.075C6.38 40.075 0.08 35.125 0.53 26.035H7.91C7.91 30.265 9.62 33.235 13.04 33.235C16.1 33.235 17.675 30.76 17.675 28.42ZM29.6042 39.085V0.924999H42.6992C49.0892 0.924999 54.5792 5.605 54.5792 14.74C54.5792 23.74 48.7292 29.185 42.3392 29.185H37.3442V39.085H29.6042ZM41.4842 7.765H37.2992V22.21H41.3492C44.7242 22.21 47.1542 19.465 47.1542 14.74C47.1542 10.195 44.8592 7.765 41.4842 7.765ZM82.4321 20.05C82.4321 33.91 77.7521 39.895 69.4721 39.895C61.1921 39.895 56.7821 33.91 56.7821 20.05C56.7821 6.145 61.1921 0.159998 69.4721 0.159998C77.7521 0.159998 82.4321 6.145 82.4321 20.05ZM64.2971 20.05C64.2971 27.205 65.2421 33.1 69.5171 33.1C73.9271 33.1 74.8721 27.205 74.8721 20.05C74.8721 12.94 73.9271 7 69.5171 7C65.2421 7 64.2971 12.94 64.2971 20.05ZM109.862 0.924999V7.855H100.682V39.085H92.8074V7.855H83.4924V0.924999H109.862ZM138.778 0.924999V7.855H129.598V39.085H121.723V7.855H112.408V0.924999H138.778ZM142.719 39.085V0.924999H164.589V7.765H150.504V15.64H164.274V22.615H150.504V32.245H164.994V39.085H142.719ZM169.702 0.924999H178.027C188.467 0.924999 195.397 6.415 195.397 19.285C195.397 31.705 188.827 39.085 178.837 39.085H169.702V0.924999ZM177.352 7.765V32.245H179.557C185.002 32.245 187.747 27.16 187.747 19.33C187.747 10.24 184.012 7.765 177.442 7.765H177.352ZM207.959 0.204998L207.194 27.925H200.264L199.499 0.204998H207.959ZM207.869 32.155V40.255H199.634V32.155H207.869Z" fill="#FDCE04"/>
</svg>
