<svg width="18" height="18" viewBox="0 0 18 18" fill="none" xmlns="http://www.w3.org/2000/svg">
<mask id="mask0_782_167" style="mask-type:alpha" maskUnits="userSpaceOnUse" x="0" y="0" width="18" height="18">
<rect width="18" height="18" fill="#D9D9D9"/>
</mask>
<g mask="url(#mask0_782_167)">
<path d="M2.4375 14.7752L9 3.4502L15.5625 14.7752H2.4375ZM9 13.1252C9.10625 13.1252 9.19531 13.0893 9.26719 13.0174C9.33906 12.9455 9.375 12.8564 9.375 12.7502C9.375 12.6439 9.33906 12.5549 9.26719 12.483C9.19531 12.4111 9.10625 12.3752 9 12.3752C8.89375 12.3752 8.80469 12.4111 8.73281 12.483C8.66094 12.5549 8.625 12.6439 8.625 12.7502C8.625 12.8564 8.66094 12.9455 8.73281 13.0174C8.80469 13.0893 8.89375 13.1252 9 13.1252ZM8.7375 11.6252H9.2625V7.8752H8.7375V11.6252Z" fill="#FF3A25"/>
</g>
</svg>
