<svg width="18" height="12" viewBox="0 0 18 12" fill="none" xmlns="http://www.w3.org/2000/svg">
<path d="M5.14286 6C6.80089 6 8.14286 4.65804 8.14286 3C8.14286 1.34196 6.80089 0 5.14286 0C3.48482 0 2.14286 1.34196 2.14286 3C2.14286 4.65804 3.48482 6 5.14286 6ZM7.2 6.85714H6.97768C6.42054 7.125 5.80179 7.28571 5.14286 7.28571C4.48393 7.28571 3.86786 7.125 3.30804 6.85714H3.08571C1.38214 6.85714 0 8.23929 0 9.94286V10.7143C0 11.4241 0.575893 12 1.28571 12H9C9.70982 12 10.2857 11.4241 10.2857 10.7143V9.94286C10.2857 8.23929 8.90357 6.85714 7.2 6.85714ZM12.8571 6C14.2768 6 15.4286 4.84821 15.4286 3.42857C15.4286 2.00893 14.2768 0.857143 12.8571 0.857143C11.4375 0.857143 10.2857 2.00893 10.2857 3.42857C10.2857 4.84821 11.4375 6 12.8571 6ZM14.1429 6.85714H14.0411C13.6687 6.98571 13.275 7.07143 12.8571 7.07143C12.4393 7.07143 12.0455 6.98571 11.6732 6.85714H11.5714C11.025 6.85714 10.5214 7.01518 10.0795 7.26964C10.733 7.97411 11.1429 8.90893 11.1429 9.94286V10.9714C11.1429 11.0304 11.1295 11.0866 11.1268 11.1429H15.8571C16.567 11.1429 17.1429 10.567 17.1429 9.85714C17.1429 8.19911 15.8009 6.85714 14.1429 6.85714Z" fill="white"/>
</svg>
