<svg width="28" height="28" viewBox="0 0 28 28" fill="none" xmlns="http://www.w3.org/2000/svg">
<path fill-rule="evenodd" clip-rule="evenodd" d="M10.5512 0L10.3846 0.846399L9.74693 3.94348C8.72747 4.33279 7.80296 4.88484 6.96762 5.53951L3.85109 4.49745L3.01383 4.23791L2.57968 4.98553L0.434142 8.57259L0 9.32033L0.635716 9.87619L3.04677 11.9273C2.95955 12.4638 2.84715 12.9945 2.84715 13.5581C2.84715 14.1218 2.95955 14.6525 3.04677 15.1891L0.635716 17.2402L0 17.796L0.434142 18.5437L2.57968 22.1308L3.01383 22.8803L3.85109 22.6189L6.96762 21.5768C7.80296 22.2315 8.72747 22.7835 9.74693 23.1728L10.3846 26.2698L10.5512 27.1164H16.5808L16.7494 26.2698L17.3851 23.1728C18.4046 22.7835 19.3291 22.2315 20.1644 21.5768L23.281 22.6189L24.1182 22.8803L24.5543 22.1308L26.6979 18.5437L27.134 17.796L26.4963 17.2402L24.0853 15.1891C24.1744 14.6525 24.2849 14.1218 24.2849 13.5581C24.2849 12.9945 24.1744 12.4638 24.0853 11.9273L26.4963 9.87619L27.134 9.32033L26.6979 8.57259L24.5543 4.98553L24.1182 4.23791L23.281 4.49745L20.1644 5.53951C19.3291 4.88484 18.4046 4.33279 17.3851 3.94348L16.7494 0.846399L16.5808 0H10.5512Z" fill="#D0D0D0"/>
<path fill-rule="evenodd" clip-rule="evenodd" d="M17.4426 13.5581C17.4426 15.6964 15.706 17.4319 13.5663 17.4319C11.4266 17.4319 9.69 15.6964 9.69 13.5581C9.69 11.4198 11.4266 9.68444 13.5663 9.68444C15.706 9.68444 17.4426 11.4198 17.4426 13.5581Z" fill="#D0D0D0"/>
<circle cx="13.5" cy="13.5" r="5.5" fill="black"/>
</svg>
